<?xml version="1.0" encoding="UTF-8"?>
<svg xmlns="http://www.w3.org/2000/svg" xmlns:ooo="http://xml.openoffice.org/svg/export" xmlns:xlink="http://www.w3.org/1999/xlink" version="1.2" baseProfile="tiny" viewBox="0 0 15375 17876" fill-rule="evenodd" clip-path="url(#presentation_clip_path)" stroke-width="28.222" stroke-linejoin="round" xml:space="preserve">
 <defs class="ClipPathGroup">
  <clipPath id="presentation_clip_path" clipPathUnits="userSpaceOnUse">
   <rect x="0" y="0" width="15375" height="17876"/>
  </clipPath>
 </defs>
 <defs class="TextShapeIndex">
  <g ooo:slide="id1" ooo:id-list="id3 id4 id5 id6 id7 id8 id9 id10 id11 id12 id13 id14 id15 id16 id17"/>
 </defs>
 <defs class="EmbeddedBulletChars">
  <g id="bullet-char-template(57356)" transform="scale(0.00048828125,-0.00048828125)">
   <path d="M 580,1141 L 1163,571 580,0 -4,571 580,1141 Z"/>
  </g>
  <g id="bullet-char-template(57354)" transform="scale(0.00048828125,-0.00048828125)">
   <path d="M 8,1128 L 1137,1128 1137,0 8,0 8,1128 Z"/>
  </g>
  <g id="bullet-char-template(10146)" transform="scale(0.00048828125,-0.00048828125)">
   <path d="M 174,0 L 602,739 174,1481 1456,739 174,0 Z M 1358,739 L 309,1346 659,739 1358,739 Z"/>
  </g>
  <g id="bullet-char-template(10132)" transform="scale(0.00048828125,-0.00048828125)">
   <path d="M 2015,739 L 1276,0 717,0 1260,543 174,543 174,936 1260,936 717,1481 1274,1481 2015,739 Z"/>
  </g>
  <g id="bullet-char-template(10007)" transform="scale(0.00048828125,-0.00048828125)">
   <path d="M 0,-2 C -7,14 -16,27 -25,37 L 356,567 C 262,823 215,952 215,954 215,979 228,992 255,992 264,992 276,990 289,987 310,991 331,999 354,1012 L 381,999 492,748 772,1049 836,1024 860,1049 C 881,1039 901,1025 922,1006 886,937 835,863 770,784 769,783 710,716 594,584 L 774,223 C 774,196 753,168 711,139 L 727,119 C 717,90 699,76 672,76 641,76 570,178 457,381 L 164,-76 C 142,-110 111,-127 72,-127 30,-127 9,-110 8,-76 1,-67 -2,-52 -2,-32 -2,-23 -1,-13 0,-2 Z"/>
  </g>
  <g id="bullet-char-template(10004)" transform="scale(0.00048828125,-0.00048828125)">
   <path d="M 285,-33 C 182,-33 111,30 74,156 52,228 41,333 41,471 41,549 55,616 82,672 116,743 169,778 240,778 293,778 328,747 346,684 L 369,508 C 377,444 397,411 428,410 L 1163,1116 C 1174,1127 1196,1133 1229,1133 1271,1133 1292,1118 1292,1087 L 1292,965 C 1292,929 1282,901 1262,881 L 442,47 C 390,-6 338,-33 285,-33 Z"/>
  </g>
  <g id="bullet-char-template(9679)" transform="scale(0.00048828125,-0.00048828125)">
   <path d="M 813,0 C 632,0 489,54 383,161 276,268 223,411 223,592 223,773 276,916 383,1023 489,1130 632,1184 813,1184 992,1184 1136,1130 1245,1023 1353,916 1407,772 1407,592 1407,412 1353,268 1245,161 1136,54 992,0 813,0 Z"/>
  </g>
  <g id="bullet-char-template(8226)" transform="scale(0.00048828125,-0.00048828125)">
   <path d="M 346,457 C 273,457 209,483 155,535 101,586 74,649 74,723 74,796 101,859 155,911 209,963 273,989 346,989 419,989 480,963 531,910 582,859 608,796 608,723 608,648 583,586 532,535 482,483 420,457 346,457 Z"/>
  </g>
  <g id="bullet-char-template(8211)" transform="scale(0.00048828125,-0.00048828125)">
   <path d="M -4,459 L 1135,459 1135,606 -4,606 -4,459 Z"/>
  </g>
 </defs>
 <defs class="TextEmbeddedBitmaps"/>
 <g>
  <g id="id2" class="Master_Slide">
   <g id="bg-id2" class="Background"/>
   <g id="bo-id2" class="BackgroundObjects"/>
  </g>
 </g>
 <g class="SlideGroup">
  <g>
   <g id="id1" class="Slide" clip-path="url(#presentation_clip_path)">
    <g class="Page">
     <g class="com.sun.star.drawing.PolyPolygonShape">
      <g id="id3">
       <path fill="rgb(0,0,0)" stroke="none" d="M 1,-1 L 1,0 1,0 0,0 1,-1 Z"/>
      </g>
     </g>
     <g class="com.sun.star.drawing.PolyPolygonShape">
      <g id="id4">
       <path fill="rgb(0,0,0)" stroke="none" d="M 0,-1 L 1,-1 1,0 0,0 0,-1 Z"/>
      </g>
     </g>
     <g class="com.sun.star.drawing.PolyPolygonShape">
      <g id="id5">
       <path fill="rgb(0,0,0)" stroke="none" d="M 0,1 L 1,0 0,-1 2,0 0,1 Z M 1,0 L 0,-1 1,0 Z"/>
      </g>
     </g>
     <g class="com.sun.star.drawing.PolyPolygonShape">
      <g id="id6">
       <path fill="rgb(0,0,0)" stroke="none" d="M 2,0 L 1,1 1,1 1,0 0,0 0,0 1,0 1,-1 1,-1 2,0 Z"/>
      </g>
     </g>
     <g class="com.sun.star.drawing.ClosedBezierShape">
      <g id="id7">
       <path fill="rgb(0,0,0)" stroke="none" d="M 0,0 L 0,0 0,0 C 0,-1 0,-1 0,-1 L 0,-1 0,-1 0,-1 0,-1 1,-1 1,-1 1,-1 1,-1 1,-1 1,-1 1,0 1,0 1,0 1,0 1,0 1,0 0,0 Z"/>
      </g>
     </g>
     <g class="com.sun.star.drawing.ClosedBezierShape">
      <g id="id8">
       <path fill="rgb(0,0,0)" stroke="none" d="M 0,0 L 0,0 0,0 0,0 C 0,-1 0,-1 0,-1 L 0,0 0,0 0,0 1,-1 1,-1 C 2,-1 2,-1 2,-1 L 2,-1 1,-1 0,0 Z"/>
      </g>
     </g>
     <g class="com.sun.star.drawing.ClosedBezierShape">
      <g id="id9">
       <path fill="rgb(0,0,0)" stroke="none" d="M 1,0 C 0,0 0,0 0,0 L 0,0 0,-1 1,-1 1,-1 1,0 Z"/>
      </g>
     </g>
     <g class="com.sun.star.drawing.PolyPolygonShape">
      <g id="id10">
       <path fill="rgb(0,0,0)" stroke="none" d="M 0,-1 L 0,-1 Z"/>
      </g>
     </g>
     <g class="com.sun.star.drawing.PolyPolygonShape">
      <g id="id11">
       <path fill="rgb(0,0,0)" stroke="none" d="M 0,0 L 1,0 1,0 0,0 Z"/>
      </g>
     </g>
     <g class="com.sun.star.drawing.PolyPolygonShape">
      <g id="id12">
       <path fill="rgb(255,255,255)" stroke="none" d="M 1437,16440 L 1437,1439 9771,1439 13938,5606 13938,16440 1437,16440 Z"/>
      </g>
     </g>
     <g class="com.sun.star.drawing.PolyPolygonShape">
      <g id="id13">
       <path fill="none" stroke="rgb(0,0,0)" stroke-width="375" stroke-linejoin="round" d="M 1437,16440 L 1437,1439 9771,1439 13938,5606 13938,16440 1437,16440 Z"/>
      </g>
     </g>
     <g class="com.sun.star.drawing.PolyPolygonShape">
      <g id="id14">
       <path fill="rgb(178,178,178)" stroke="none" d="M 9770,1437 L 13938,5605 9770,5605 9770,1437 Z M 9770,1437 L 9770,1437 Z M 13938,5605 L 13938,5605 Z"/>
      </g>
     </g>
     <g class="com.sun.star.drawing.PolyPolygonShape">
      <g id="id15">
       <path fill="none" stroke="rgb(0,0,0)" stroke-width="375" stroke-linejoin="round" d="M 9770,1437 L 13938,5605 9770,5605 9770,1437 Z"/>
      </g>
     </g>
     <g class="com.sun.star.drawing.CustomShape">
      <g id="id16">
       <path fill="rgb(255,255,255)" stroke="none" d="M 7583,12000 C 7291,12000 7000,12291 7000,12583 L 7000,14917 C 7000,15209 7291,15501 7583,15501 L 14417,15501 C 14709,15501 15001,15209 15001,14917 L 15001,12583 C 15001,12291 14709,12000 14417,12000 L 7583,12000 Z M 7000,12000 L 7000,12000 Z M 15001,15501 L 15001,15501 Z"/>
       <path fill="none" stroke="rgb(51,51,51)" stroke-width="200" stroke-linejoin="round" d="M 7583,12000 C 7291,12000 7000,12291 7000,12583 L 7000,14917 C 7000,15209 7291,15501 7583,15501 L 14417,15501 C 14709,15501 15001,15209 15001,14917 L 15001,12583 C 15001,12291 14709,12000 14417,12000 L 7583,12000 Z"/>
      </g>
     </g>
     <g class="com.sun.star.drawing.CustomShape">
      <g id="id17">
       <path fill="rgb(153,102,51)" stroke="none" d="M 7600,14285 L 8502,14285 8502,14957 7600,14957 7600,14285 Z M 10334,12540 L 11275,12540 11275,13854 11270,14048 11263,14136 11253,14218 11240,14293 11224,14363 11205,14427 11184,14483 11158,14536 11126,14587 11088,14636 11045,14683 10996,14727 10940,14770 10879,14811 10812,14849 10739,14884 10662,14915 10581,14941 10493,14962 10401,14978 10305,14990 10204,14997 10097,15000 9985,14998 9880,14994 9781,14986 9689,14975 9602,14961 9523,14944 9449,14923 9383,14900 9322,14874 9264,14845 9210,14814 9160,14779 9113,14742 9069,14701 9028,14658 8992,14612 8959,14562 8930,14511 8904,14455 8883,14399 8864,14338 8849,14275 8838,14209 8829,14141 9728,14044 9731,14118 9738,14183 9743,14211 9748,14236 9756,14260 9763,14281 9772,14299 9783,14318 9794,14335 9808,14351 9822,14366 9838,14380 9856,14394 9876,14406 9882,14410 9890,14413 9906,14420 9922,14425 9941,14430 9960,14433 9981,14436 10004,14437 10028,14438 10067,14436 10085,14434 10102,14432 10119,14428 10135,14424 10151,14420 10165,14414 10180,14408 10193,14401 10206,14394 10219,14385 10229,14376 10241,14366 10251,14355 10260,14344 10269,14332 10277,14319 10285,14305 10292,14290 10305,14257 10316,14219 10323,14178 10330,14133 10333,14084 10334,14030 10334,12540 Z M 11739,14136 L 12634,14136 12642,14176 12652,14214 12664,14248 12677,14281 12694,14310 12712,14338 12731,14363 12752,14386 12770,14403 12791,14418 12811,14433 12832,14446 12855,14459 12878,14470 12903,14480 12929,14489 12954,14498 12982,14505 13011,14511 13040,14516 13102,14522 13167,14524 13216,14523 13261,14519 13305,14513 13344,14506 13382,14495 13400,14489 13417,14482 13433,14474 13448,14467 13463,14458 13477,14449 13502,14429 13525,14410 13534,14399 13543,14389 13552,14378 13559,14368 13564,14357 13571,14346 13575,14334 13579,14323 13582,14311 13584,14299 13586,14287 13586,14275 13586,14263 13584,14252 13583,14241 13579,14230 13576,14219 13571,14208 13567,14197 13560,14186 13553,14175 13545,14165 13528,14146 13507,14125 13482,14107 13468,14097 13452,14088 13433,14079 13413,14070 13366,14052 13310,14034 13246,14017 13172,14000 13001,13966 12852,13938 12714,13907 12588,13874 12471,13838 12367,13800 12272,13760 12190,13718 12119,13674 12057,13626 12029,13601 12003,13576 11979,13550 11957,13522 11938,13494 11920,13466 11905,13436 11891,13405 11879,13374 11871,13343 11863,13309 11858,13276 11854,13207 11856,13161 11862,13115 11873,13070 11888,13026 11906,12983 11929,12939 11957,12897 11989,12855 12026,12814 12066,12776 12110,12741 12159,12707 12213,12675 12270,12646 12331,12619 12398,12595 12469,12573 12547,12553 12632,12537 12721,12523 12819,12513 12921,12505 13030,12501 13146,12500 13287,12502 13420,12511 13544,12524 13660,12544 13766,12569 13865,12600 13911,12617 13954,12635 13996,12656 14036,12677 14073,12700 14108,12724 14141,12751 14174,12779 14202,12809 14230,12839 14256,12872 14279,12907 14301,12943 14321,12981 14355,13061 14381,13148 14399,13241 13513,13241 13503,13205 13491,13170 13476,13139 13459,13110 13438,13083 13428,13071 13417,13059 13404,13048 13391,13038 13378,13028 13365,13019 13351,13011 13335,13003 13320,12995 13303,12988 13268,12977 13230,12966 13189,12959 13147,12954 13101,12950 13053,12949 13013,12950 12976,12953 12941,12957 12909,12963 12879,12972 12853,12981 12840,12986 12828,12992 12816,12998 12806,13005 12786,13019 12769,13034 12762,13042 12754,13050 12749,13058 12744,13066 12738,13074 12734,13084 12731,13092 12728,13101 12726,13111 12723,13120 12722,13129 12722,13140 12722,13146 12723,13154 12724,13161 12727,13168 12729,13174 12732,13181 12735,13188 12739,13194 12745,13201 12749,13207 12761,13219 12775,13231 12791,13243 12800,13249 12810,13255 12823,13261 12836,13266 12867,13278 12903,13289 12946,13300 12994,13311 13107,13332 13393,13385 13636,13438 13741,13465 13835,13492 13918,13518 13990,13545 14054,13573 14114,13603 14169,13634 14219,13667 14266,13701 14308,13737 14344,13775 14378,13814 14406,13854 14431,13896 14451,13938 14470,13983 14482,14028 14492,14074 14497,14123 14499,14171 14497,14229 14489,14285 14477,14341 14459,14394 14435,14448 14408,14500 14375,14551 14337,14600 14294,14647 14248,14692 14198,14734 14144,14772 14085,14808 14022,14841 13956,14871 13885,14898 13810,14922 13730,14942 13646,14959 13557,14973 13463,14984 13364,14993 13260,14997 13152,14999 12965,14995 12794,14984 12637,14965 12495,14938 12430,14922 12369,14904 12310,14883 12256,14861 12206,14838 12159,14812 12116,14785 12077,14755 12006,14692 11943,14625 11889,14554 11843,14478 11804,14399 11775,14315 11753,14228 11739,14136 Z"/>
       <path fill="none" stroke="rgb(0,0,0)" stroke-width="26" stroke-linejoin="miter" d="M 7600,14285 L 8502,14285 8502,14957 7600,14957 7600,14285 Z"/>
       <path fill="none" stroke="rgb(0,0,0)" stroke-width="26" stroke-linejoin="miter" d="M 10334,12540 L 11275,12540 11275,13854 11270,14048 11263,14136 11253,14218 11240,14293 11224,14363 11205,14427 11184,14483 11158,14536 11126,14587 11088,14636 11045,14683 10996,14727 10940,14770 10879,14811 10812,14849 10739,14884 10662,14915 10581,14941 10493,14962 10401,14978 10305,14990 10204,14997 10097,15000 9985,14998 9880,14994 9781,14986 9689,14975 9602,14961 9523,14944 9449,14923 9383,14900 9322,14874 9264,14845 9210,14814 9160,14779 9113,14742 9069,14701 9028,14658 8992,14612 8959,14562 8930,14511 8904,14455 8883,14399 8864,14338 8849,14275 8838,14209 8829,14141 9728,14044 9731,14118 9738,14183 9743,14211 9748,14236 9756,14260 9763,14281 9772,14299 9783,14318 9794,14335 9808,14351 9822,14366 9838,14380 9856,14394 9876,14406 9882,14410 9890,14413 9906,14420 9922,14425 9941,14430 9960,14433 9981,14436 10004,14437 10028,14438 10067,14436 10085,14434 10102,14432 10119,14428 10135,14424 10151,14420 10165,14414 10180,14408 10193,14401 10206,14394 10219,14385 10229,14376 10241,14366 10251,14355 10260,14344 10269,14332 10277,14319 10285,14305 10292,14290 10305,14257 10316,14219 10323,14178 10330,14133 10333,14084 10334,14030 10334,12540 Z"/>
       <path fill="none" stroke="rgb(0,0,0)" stroke-width="26" stroke-linejoin="miter" d="M 11739,14136 L 12634,14136 12642,14176 12652,14214 12664,14248 12677,14281 12694,14310 12712,14338 12731,14363 12752,14386 12770,14403 12791,14418 12811,14433 12832,14446 12855,14459 12878,14470 12903,14480 12929,14489 12954,14498 12982,14505 13011,14511 13040,14516 13102,14522 13167,14524 13216,14523 13261,14519 13305,14513 13344,14506 13382,14495 13400,14489 13417,14482 13433,14474 13448,14467 13463,14458 13477,14449 13502,14429 13525,14410 13534,14399 13543,14389 13552,14378 13559,14368 13564,14357 13571,14346 13575,14334 13579,14323 13582,14311 13584,14299 13586,14287 13586,14275 13586,14263 13584,14252 13583,14241 13579,14230 13576,14219 13571,14208 13567,14197 13560,14186 13553,14175 13545,14165 13528,14146 13507,14125 13482,14107 13468,14097 13452,14088 13433,14079 13413,14070 13366,14052 13310,14034 13246,14017 13172,14000 13001,13966 12852,13938 12714,13907 12588,13874 12471,13838 12367,13800 12272,13760 12190,13718 12119,13674 12057,13626 12029,13601 12003,13576 11979,13550 11957,13522 11938,13494 11920,13466 11905,13436 11891,13405 11879,13374 11871,13343 11863,13309 11858,13276 11854,13207 11856,13161 11862,13115 11873,13070 11888,13026 11906,12983 11929,12939 11957,12897 11989,12855 12026,12814 12066,12776 12110,12741 12159,12707 12213,12675 12270,12646 12331,12619 12398,12595 12469,12573 12547,12553 12632,12537 12721,12523 12819,12513 12921,12505 13030,12501 13146,12500 13287,12502 13420,12511 13544,12524 13660,12544 13766,12569 13865,12600 13911,12617 13954,12635 13996,12656 14036,12677 14073,12700 14108,12724 14141,12751 14174,12779 14202,12809 14230,12839 14256,12872 14279,12907 14301,12943 14321,12981 14355,13061 14381,13148 14399,13241 13513,13241 13503,13205 13491,13170 13476,13139 13459,13110 13438,13083 13428,13071 13417,13059 13404,13048 13391,13038 13378,13028 13365,13019 13351,13011 13335,13003 13320,12995 13303,12988 13268,12977 13230,12966 13189,12959 13147,12954 13101,12950 13053,12949 13013,12950 12976,12953 12941,12957 12909,12963 12879,12972 12853,12981 12840,12986 12828,12992 12816,12998 12806,13005 12786,13019 12769,13034 12762,13042 12754,13050 12749,13058 12744,13066 12738,13074 12734,13084 12731,13092 12728,13101 12726,13111 12723,13120 12722,13129 12722,13140 12722,13146 12723,13154 12724,13161 12727,13168 12729,13174 12732,13181 12735,13188 12739,13194 12745,13201 12749,13207 12761,13219 12775,13231 12791,13243 12800,13249 12810,13255 12823,13261 12836,13266 12867,13278 12903,13289 12946,13300 12994,13311 13107,13332 13393,13385 13636,13438 13741,13465 13835,13492 13918,13518 13990,13545 14054,13573 14114,13603 14169,13634 14219,13667 14266,13701 14308,13737 14344,13775 14378,13814 14406,13854 14431,13896 14451,13938 14470,13983 14482,14028 14492,14074 14497,14123 14499,14171 14497,14229 14489,14285 14477,14341 14459,14394 14435,14448 14408,14500 14375,14551 14337,14600 14294,14647 14248,14692 14198,14734 14144,14772 14085,14808 14022,14841 13956,14871 13885,14898 13810,14922 13730,14942 13646,14959 13557,14973 13463,14984 13364,14993 13260,14997 13152,14999 12965,14995 12794,14984 12637,14965 12495,14938 12430,14922 12369,14904 12310,14883 12256,14861 12206,14838 12159,14812 12116,14785 12077,14755 12006,14692 11943,14625 11889,14554 11843,14478 11804,14399 11775,14315 11753,14228 11739,14136 Z"/>
      </g>
     </g>
    </g>
   </g>
  </g>
 </g>
</svg>
